HIERARCHY
ROOT Hips
{
  OFFSET 5.84602e-005 68.8428 3.50346
  CHANNELS 6 Xposition Yposition Zposition Zrotation Xrotation Yrotation
  JOINT Spine
  {
    OFFSET 0 8.597 -4.6522
    CHANNELS 3 Zrotation Xrotation Yrotation
    JOINT Spine1
    {
      OFFSET 0 7.8454 0.4098
      CHANNELS 3 Zrotation Xrotation Yrotation
      JOINT Spine2
      {
        OFFSET 0 9.7078 -2.1609
        CHANNELS 3 Zrotation Xrotation Yrotation
        JOINT Neck
        {
          OFFSET 0 21.8761 -0.4549
          CHANNELS 3 Zrotation Xrotation Yrotation
          JOINT Head
          {
            OFFSET 0 12.3537 3.3602
            CHANNELS 3 Zrotation Xrotation Yrotation
            End Site
            {
              OFFSET 0.0001 18.9506 0.5657
            }
          }
        }
        JOINT LeftShoulder
        {
          OFFSET 2.2086 21.1115 7.2329
          CHANNELS 3 Zrotation Xrotation Yrotation
          JOINT LeftArm
          {
            OFFSET 13.1193 3.0282 -4.8998
            CHANNELS 3 Zrotation Xrotation Yrotation
            JOINT LeftForeArm
            {
              OFFSET 27.4081 -0.0973053 -0.2375
              CHANNELS 3 Zrotation Xrotation Yrotation
              JOINT LeftHand
              {
                OFFSET 22.8641 0.0662994 -0.1369
                CHANNELS 3 Zrotation Xrotation Yrotation
                JOINT LeftHandIndex1
                {
                  OFFSET 8.8614 0.775009 2.4612
                  CHANNELS 3 Zrotation Xrotation Yrotation
                  JOINT LeftHandIndex2
                  {
                    OFFSET 3.3146 -0.808304 0.5841
                    CHANNELS 3 Zrotation Xrotation Yrotation
                    JOINT LeftHandIndex3
                    {
                      OFFSET 2.2628 -0.552002 0.3989
                      CHANNELS 3 Zrotation Xrotation Yrotation
                      End Site
                      {
                        OFFSET 1.6102 -0.4807 0.2612
                      }
                    }
                  }
                }
                JOINT LeftHandMiddle1
                {
                  OFFSET 8.9937 0.895004 0.2143
                  CHANNELS 3 Zrotation Xrotation Yrotation
                  JOINT LeftHandMiddle2
                  {
                    OFFSET 4.0984 0.0113983 -0.0242
                    CHANNELS 3 Zrotation Xrotation Yrotation
                    JOINT LeftHandMiddle3
                    {
                      OFFSET 2.2716 0.00689697 -0.0138001
                      CHANNELS 3 Zrotation Xrotation Yrotation
                      End Site
                      {
                        OFFSET 2.0404 -0.1441 0.0027
                      }
                    }
                  }
                }
                JOINT LeftHandRing1
                {
                  OFFSET 8.5234 0.597198 -2.0164
                  CHANNELS 3 Zrotation Xrotation Yrotation
                  JOINT LeftHandRing2
                  {
                    OFFSET 3.7188 -0.188293 -0.2328
                    CHANNELS 3 Zrotation Xrotation Yrotation
                    JOINT LeftHandRing3
                    {
                      OFFSET 2.1191 -0.106598 -0.1332
                      CHANNELS 3 Zrotation Xrotation Yrotation
                      End Site
                      {
                        OFFSET 1.8737 -0.2304 -0.0886
                      }
                    }
                  }
                }
                JOINT LeftHandPinky1
                {
                  OFFSET 7.9094 -0.601089 -3.4825
                  CHANNELS 3 Zrotation Xrotation Yrotation
                  JOINT LeftHandPinky2
                  {
                    OFFSET 2.2874 -0.477005 -0.6314
                    CHANNELS 3 Zrotation Xrotation Yrotation
                    JOINT LeftHandPinky3
                    {
                      OFFSET 1.6774 -0.349396 -0.4633
                      CHANNELS 3 Zrotation Xrotation Yrotation
                      End Site
                      {
                        OFFSET 1.4888 -0.4091 -0.3416
                      }
                    }
                  }
                }
                JOINT LeftHandThumb1
                {
                  OFFSET 1.833 -1.3875 1.3896
                  CHANNELS 3 Zrotation Xrotation Yrotation
                  JOINT LeftHandThumb2
                  {
                    OFFSET 3.4129 -1.121 2.5732
                    CHANNELS 3 Zrotation Xrotation Yrotation
                    JOINT LeftHandThumb3
                    {
                      OFFSET 2.2474 -0.804199 1.6192
                      CHANNELS 3 Zrotation Xrotation Yrotation
                      End Site
                      {
                        OFFSET 1.6527 -0.5689 1.1317
                      }
                    }
                  }
                }
              }
            }
          }
        }
        JOINT RightShoulder
        {
          OFFSET -2.2086 21.1115 7.2329
          CHANNELS 3 Zrotation Xrotation Yrotation
          JOINT RightArm
          {
            OFFSET -13.1216 3.0287 -4.9007
            CHANNELS 3 Zrotation Xrotation Yrotation
            JOINT RightForeArm
            {
              OFFSET -27.4081 -0.0973053 -0.2375
              CHANNELS 3 Zrotation Xrotation Yrotation
              JOINT RightHand
              {
                OFFSET -22.8641 0.0664063 -0.1369
                CHANNELS 3 Zrotation Xrotation Yrotation
                JOINT RightHandIndex1
                {
                  OFFSET -8.8614 0.774994 2.4612
                  CHANNELS 3 Zrotation Xrotation Yrotation
                  JOINT RightHandIndex2
                  {
                    OFFSET -3.3146 -0.808304 0.5841
                    CHANNELS 3 Zrotation Xrotation Yrotation
                    JOINT RightHandIndex3
                    {
                      OFFSET -2.2628 -0.552002 0.3989
                      CHANNELS 3 Zrotation Xrotation Yrotation
                      End Site
                      {
                        OFFSET -1.6102 -0.4807 0.2612
                      }
                    }
                  }
                }
                JOINT RightHandMiddle1
                {
                  OFFSET -8.9937 0.894989 0.2143
                  CHANNELS 3 Zrotation Xrotation Yrotation
                  JOINT RightHandMiddle2
                  {
                    OFFSET -4.0984 0.0113983 -0.0242
                    CHANNELS 3 Zrotation Xrotation Yrotation
                    JOINT RightHandMiddle3
                    {
                      OFFSET -2.2716 0.00691223 -0.0138001
                      CHANNELS 3 Zrotation Xrotation Yrotation
                      End Site
                      {
                        OFFSET -2.0404 -0.1441 0.0027
                      }
                    }
                  }
                }
                JOINT RightHandRing1
                {
                  OFFSET -8.5234 0.597198 -2.0164
                  CHANNELS 3 Zrotation Xrotation Yrotation
                  JOINT RightHandRing2
                  {
                    OFFSET -3.7188 -0.188309 -0.2328
                    CHANNELS 3 Zrotation Xrotation Yrotation
                    JOINT RightHandRing3
                    {
                      OFFSET -2.1191 -0.106598 -0.1332
                      CHANNELS 3 Zrotation Xrotation Yrotation
                      End Site
                      {
                        OFFSET -1.8737 -0.2304 -0.0886
                      }
                    }
                  }
                }
                JOINT RightHandPinky1
                {
                  OFFSET -7.9094 -0.601105 -3.4825
                  CHANNELS 3 Zrotation Xrotation Yrotation
                  JOINT RightHandPinky2
                  {
                    OFFSET -2.2874 -0.477005 -0.6314
                    CHANNELS 3 Zrotation Xrotation Yrotation
                    JOINT RightHandPinky3
                    {
                      OFFSET -1.6774 -0.349396 -0.4633
                      CHANNELS 3 Zrotation Xrotation Yrotation
                      End Site
                      {
                        OFFSET -1.4888 -0.4091 -0.3416
                      }
                    }
                  }
                }
                JOINT RightHandThumb1
                {
                  OFFSET -1.833 -1.38751 1.3896
                  CHANNELS 3 Zrotation Xrotation Yrotation
                  JOINT RightHandThumb2
                  {
                    OFFSET -3.41299 -1.12099 2.5732
                    CHANNELS 3 Zrotation Xrotation Yrotation
                    JOINT RightHandThumb3
                    {
                      OFFSET -2.24741 -0.804108 1.6192
                      CHANNELS 3 Zrotation Xrotation Yrotation
                      End Site
                      {
                        OFFSET -1.6527 -0.5689 1.1317
                      }
                    }
                  }
                }
              }
            }
          }
        }
      }
    }
  }
  JOINT RightUpLeg
  {
    OFFSET -9.1966 3.8861 -0.7581
    CHANNELS 3 Zrotation Xrotation Yrotation
    JOINT RightLeg
    {
      OFFSET -0.7359 -41.0265 0
      CHANNELS 3 Zrotation Xrotation Yrotation
      JOINT RightFoot
      {
        OFFSET 0 -40.2855 0
        CHANNELS 3 Zrotation Xrotation Yrotation
        JOINT RightToeBase
        {
          OFFSET 0 -5.6122 11.7359
          CHANNELS 3 Zrotation Xrotation Yrotation
          End Site
          {
            OFFSET 0 0 7.8731
          }
        }
      }
    }
  }
  JOINT LeftUpLeg
  {
    OFFSET 9.1965 3.8864 -0.7581
    CHANNELS 3 Zrotation Xrotation Yrotation
    JOINT LeftLeg
    {
      OFFSET 0.7359 -41.0268 0
      CHANNELS 3 Zrotation Xrotation Yrotation
      JOINT LeftFoot
      {
        OFFSET 0 -40.2855 0
        CHANNELS 3 Zrotation Xrotation Yrotation
        JOINT LeftToeBase
        {
          OFFSET 0 -5.6122 11.7359
          CHANNELS 3 Zrotation Xrotation Yrotation
          End Site
          {
            OFFSET 0 0 7.8731
          }
        }
      }
    }
  }
}
MOTION
Frames:	5
Frame Time:	0.0333333
38.0084 27.7644 15.1575 92.8129 89.9863 135.18 7.40299 3.71612 3.85818 14.59 7.89172 7.22862 14.59 7.89169 7.22864 -1.82043e-005 -35.8029 -8.27491e-006 -2.31907e-007 -25.4265 1.58211e-006 9.3497 1.14812 37.7332 3.01336 31.9337 -32.3621 45.4007 -27.8718 -52.4275 -9.88422 8.80284 1.2803 -3.97569e-016 -1.59028e-015 4.77083e-015 -5.29008e-007 9.23137e-007 2.8544e-008 -7.95139e-016 -3.18055e-015 3.18055e-015 -3.97569e-016 -1.59028e-015 4.77083e-015 -0.0145877 -8.75505e-005 -2.12376e-006 -1.3917e-007 -1.60872e-007 -4.21176e-009 -3.97569e-016 -1.59028e-015 4.77083e-015 -0.0187563 -0.00117489 5.71097e-005 0 0 -3.18055e-015 -3.97569e-016 -1.59028e-015 4.77083e-015 -0.0122929 -0.00325361 0.000677214 -1.19271e-015 1.59028e-015 -0 -3.97569e-016 -1.59028e-015 4.77083e-015 -5.29008e-007 9.23137e-007 2.8544e-008 -7.95139e-016 -3.18055e-015 3.18055e-015 27.9276 6.6966 19.2691 35.4436 -52.3787 -28.5386 0.054169 -15.3055 1.28287 30.3729 -2.96954 -3.75581 0 0 -3.18055e-015 6.36111e-015 -3.18055e-015 -1.27222e-014 6.36111e-015 0 -1.27222e-014 0 0 -3.18055e-015 0.0150103 -9.09183e-005 -9.23809e-007 3.18055e-015 -3.18055e-015 -0 0 0 -3.18055e-015 0.0189908 -0.00119195 -6.17408e-005 3.18055e-015 -1.27222e-014 -6.36111e-015 0 0 -3.18055e-015 0.0122201 -0.00323757 -0.000670402 -1.05934e-030 -9.54166e-015 -6.36111e-015 0 0 -3.18055e-015 6.36111e-015 -3.18055e-015 -1.27222e-014 6.36111e-015 0 -1.27222e-014 146.798 -36.2612 155.593 82.084 47.3729 -81.5523 -0.435021 11.1046 9.78875 -1.36761e-006 1.88951e-007 -9.2652e-007 131.337 -45.4334 128.819 39.5901 67.6943 -36.4408 -19.257 9.97025 10.1165 3.18055e-015 6.36111e-015 -0 
38.0062 27.7647 15.4048 92.8129 89.9863 135.18 7.56349 3.75135 3.82361 14.913 7.96677 7.14346 14.913 7.96679 7.14346 -8.74423e-005 -35.3617 -7.79017e-005 6.27206e-006 -25.1112 1.48157e-005 8.10834 1.37454 37.3733 3.01337 31.9337 -32.3621 45.2333 -27.6851 -52.1375 -9.35268 9.03775 1.32711 1.04075e-007 8.447e-007 -2.01546e-008 3.18275e-007 -8.96737e-007 -1.21471e-008 1.04075e-007 8.447e-007 -2.01546e-008 1.04075e-007 8.447e-007 -2.01546e-008 -0.0146302 -9.07515e-005 -1.97492e-006 1.04066e-007 8.44703e-007 -2.00469e-008 1.04075e-007 8.447e-007 -2.01546e-008 -0.0187525 -0.00117709 5.78413e-005 1.04064e-007 8.44703e-007 -2.00174e-008 1.04075e-007 8.447e-007 -2.01546e-008 -0.0123119 -0.00326167 0.000676795 1.04072e-007 8.447e-007 -2.00664e-008 1.04075e-007 8.447e-007 -2.01546e-008 3.18275e-007 -8.96737e-007 -1.21471e-008 1.04075e-007 8.447e-007 -2.01546e-008 27.3741 6.69973 19.2871 35.3274 -52.3073 -28.4056 0.0541816 -15.3055 1.28287 30.2177 -2.94468 -3.66988 3.18055e-015 -6.36111e-015 -0 -3.36837e-007 -4.90742e-007 6.05972e-007 -6.73674e-007 -9.81484e-007 1.21194e-006 3.18055e-015 -6.36111e-015 -0 0.0150268 -9.48242e-005 1.25487e-006 -6.73696e-007 -9.81325e-007 1.21207e-006 3.18055e-015 -6.36111e-015 -0 0.0189709 -0.0011945 -5.67945e-005 -6.7369e-007 -9.81282e-007 1.21211e-006 3.18055e-015 -6.36111e-015 -0 0.0122882 -0.00325433 -0.000677378 -6.73652e-007 -9.81353e-007 1.21207e-006 3.18055e-015 -6.36111e-015 -0 -3.36837e-007 -4.90742e-007 6.05972e-007 -6.73674e-007 -9.81484e-007 1.21194e-006 146.302 -35.9417 155.819 82.0777 47.3724 -81.5243 0.179524 10.8441 9.2573 7.95139e-016 -3.18055e-015 -1.98785e-015 130.903 -45.3683 128.775 39.5825 67.6911 -36.4316 -18.9971 9.87172 9.80601 2.25974e-006 4.37504e-007 -4.21213e-006 
38.004 27.765 15.6521 92.8129 89.9863 135.18 7.7241 3.78653 3.78901 15.2364 8.04151 7.0581 15.2363 8.04152 7.05808 -4.09627e-006 -34.9198 1.092e-006 5.39602e-006 -24.7957 2.6267e-005 6.8656 1.60919 37.0175 3.01336 31.9337 -32.3621 45.0652 -27.4991 -51.8472 -8.82078 9.27318 1.37174 5.25933e-007 7.92873e-007 -5.37287e-008 2.11168e-007 -2.58993e-008 -1.63682e-008 5.25933e-007 7.92873e-007 -5.37287e-008 5.25933e-007 7.92873e-007 -5.37287e-008 -0.0146169 -8.83485e-005 5.44939e-008 5.25926e-007 7.9288e-007 -5.3628e-008 5.25933e-007 7.92873e-007 -5.37287e-008 -0.0187632 -0.00117617 5.63494e-005 5.25923e-007 7.92881e-007 -5.36043e-008 5.25933e-007 7.92873e-007 -5.37287e-008 -0.0122327 -0.00323688 0.000676771 5.2593e-007 7.92874e-007 -5.36586e-008 5.25933e-007 7.92873e-007 -5.37287e-008 2.11168e-007 -2.58993e-008 -1.63682e-008 5.25933e-007 7.92873e-007 -5.37287e-008 26.8204 6.70269 19.3052 35.2111 -52.236 -28.2725 0.0541505 -15.3055 1.28286 30.0625 -2.92005 -3.58387 -1.24184e-006 1.36049e-006 2.34893e-006 5.66277e-007 -2.34177e-006 -1.13789e-006 -1.24184e-006 1.36049e-006 2.34893e-006 -1.24184e-006 1.36049e-006 2.34893e-006 0.0149953 -8.95886e-005 -1.87367e-006 -3.37792e-007 -4.90563e-007 6.05583e-007 -1.24184e-006 1.36049e-006 2.34893e-006 0.0190076 -0.00119092 -5.44662e-005 -3.37789e-007 -4.90541e-007 6.05604e-007 -1.24184e-006 1.36049e-006 2.34893e-006 0.0123255 -0.00326491 -0.000674607 -3.3777e-007 -4.90577e-007 6.05582e-007 -1.24184e-006 1.36049e-006 2.34893e-006 5.66277e-007 -2.34177e-006 -1.13789e-006 -1.24184e-006 1.36049e-006 2.34893e-006 145.805 -35.6236 156.048 82.0712 47.3719 -81.4961 0.791235 10.5777 8.72881 -1.37668e-006 1.90406e-007 -9.28383e-007 130.468 -45.3031 128.731 39.5751 67.6879 -36.4225 -18.7378 9.77171 9.49603 -2.15605e-006 1.16967e-006 1.18523e-005 
38.0018 27.7652 15.8993 92.8129 89.9863 135.18 7.88478 3.82164 3.75444 15.5599 8.1159 6.9725 15.5599 8.1159 6.9725 -0.00010628 -34.4777 -6.24553e-005 -1.19258e-005 -24.48 -1.42389e-005 5.62189 1.85197 36.6663 3.01337 31.9337 -32.3621 44.8962 -27.3138 -51.5568 -8.28849 9.50909 1.4142 3.1852e-007 -2.59934e-007 -6.12948e-008 -2.11161e-007 2.57773e-008 1.65793e-008 2.11161e-007 -2.57773e-008 -1.65793e-008 3.1852e-007 -2.59934e-007 -6.12948e-008 -0.0146001 -8.95262e-005 1.22509e-006 3.16764e-007 -2.59936e-007 -6.1328e-008 3.1852e-007 -2.59934e-007 -6.12948e-008 -0.0187617 -0.00117633 5.90033e-005 2.11162e-007 -2.57746e-008 -1.65857e-008 3.1852e-007 -2.59934e-007 -6.12948e-008 -0.0122725 -0.00324821 0.000675689 2.11161e-007 -2.57767e-008 -1.65881e-008 3.1852e-007 -2.59934e-007 -6.12948e-008 -2.11161e-007 2.57773e-008 1.65793e-008 2.11161e-007 -2.57773e-008 -1.65793e-008 26.2666 6.70548 19.3233 35.0947 -52.1649 -28.1394 0.0541612 -15.3055 1.28286 29.9072 -2.89563 -3.49779 3.38725e-007 4.90543e-007 -6.05063e-007 3.18055e-015 -3.18055e-015 -3.18055e-015 -1.76556e-031 3.18055e-015 3.18055e-015 3.38725e-007 4.90543e-007 -6.05063e-007 0.0150443 -8.9589e-005 -1.98424e-006 9.04143e-007 -1.84085e-006 -1.73344e-006 3.38725e-007 4.90543e-007 -6.05063e-007 0.0190063 -0.00119174 -6.36717e-005 -3.18055e-015 9.54166e-015 -0 3.38725e-007 4.90543e-007 -6.05063e-007 0.0122513 -0.00324407 -0.000675515 3.18055e-015 9.54166e-015 -9.54166e-015 3.38725e-007 4.90543e-007 -6.05063e-007 3.18055e-015 -3.18055e-015 -3.18055e-015 -1.76556e-031 3.18055e-015 3.18055e-015 145.309 -35.307 156.28 82.0646 47.3715 -81.4679 1.40016 10.3055 8.2034 -1.59028e-015 -3.18055e-015 2.38542e-015 130.035 -45.2376 128.688 39.5682 67.685 -36.4139 -18.4792 9.67015 9.1866 -5.06794e-006 -2.43604e-006 6.73252e-006 
37.9996 27.7653 16.1466 92.8129 89.9863 135.18 8.04553 3.85671 3.71988 15.8837 8.18997 6.88672 15.8837 8.18996 6.88672 -0.000333797 -34.0358 -0.000134809 -2.78255e-006 -24.1642 -1.42077e-005 4.37746 2.10273 36.3198 3.01337 31.9337 -32.3621 44.7265 -27.1293 -51.2661 -7.75584 9.74546 1.45449 2.11156e-007 -2.56534e-008 -1.67836e-008 -1.19271e-015 1.59028e-015 1.59028e-015 2.11156e-007 -2.56534e-008 -1.67836e-008 2.11156e-007 -2.56534e-008 -1.67836e-008 -0.0145899 -8.91113e-005 -1.21915e-006 2.11157e-007 -2.56512e-008 -1.6787e-008 2.11156e-007 -2.56534e-008 -1.67836e-008 -0.0187742 -0.00117923 5.93992e-005 2.11157e-007 -2.56506e-008 -1.67899e-008 2.11156e-007 -2.56534e-008 -1.67836e-008 -0.0122562 -0.00324494 0.000673347 2.11156e-007 -2.56526e-008 -1.67923e-008 2.11156e-007 -2.56534e-008 -1.67836e-008 -1.19271e-015 1.59028e-015 1.59028e-015 2.11156e-007 -2.56534e-008 -1.67836e-008 25.7125 6.70808 19.3414 34.9782 -52.0939 -28.0063 0.0541642 -15.3055 1.28286 29.7519 -2.87145 -3.41164 -3.39667e-007 -4.90446e-007 6.04606e-007 3.39667e-007 4.90446e-007 -6.04606e-007 -6.79335e-007 -9.80891e-007 1.20921e-006 -3.39667e-007 -4.90446e-007 6.04606e-007 0.0150324 -8.56548e-005 3.09481e-006 -1.58204e-006 8.49578e-007 2.93308e-006 -3.39667e-007 -4.90446e-007 6.04606e-007 0.0190254 -0.00118804 -5.61272e-005 -6.7935e-007 -9.80689e-007 1.20938e-006 -3.39667e-007 -4.90446e-007 6.04606e-007 0.012293 -0.00326127 -0.000684341 -6.79313e-007 -9.80761e-007 1.20934e-006 -3.39667e-007 -4.90446e-007 6.04606e-007 3.39667e-007 4.90446e-007 -6.04606e-007 -6.79335e-007 -9.80891e-007 1.20921e-006 144.812 -34.9919 156.514 82.0579 47.371 -81.4396 2.00614 10.0275 7.68119 6.36111e-015 0 6.36111e-015 129.602 -45.1718 128.646 39.5611 67.6819 -36.4052 -18.2212 9.56727 8.8777 2.26864e-006 3.07983e-006 -5.45957e-006 
